<?xml version="1.0" encoding="UTF-8" standalone="no"?>
<svg
   xmlns:dc="http://purl.org/dc/elements/1.1/"
   xmlns:cc="http://creativecommons.org/ns#"
   xmlns:rdf="http://www.w3.org/1999/02/22-rdf-syntax-ns#"
   xmlns:svg="http://www.w3.org/2000/svg"
   xmlns="http://www.w3.org/2000/svg"
   version="1.1"
   id="svg8132"
   viewBox="0 0 639.89801 154"
   height="154"
   width="639.89801">
  <metadata
     id="metadata8156">
    <rdf:RDF>
      <cc:Work
         rdf:about="">
        <dc:format>image/svg+xml</dc:format>
        <dc:type
           rdf:resource="http://purl.org/dc/dcmitype/StillImage" />
        <dc:title>wv-logo</dc:title>
      </cc:Work>
    </rdf:RDF>
  </metadata>
  <defs
     id="defs8154" />
  <title
     id="title8134">wv-logo</title>
  <g
     transform="translate(4,4)"
     style="fill:none;fill-rule:evenodd"
     id="g8136">
    <path
       style="fill:#203640"
       id="Fill-6"
       d="m 532.262,26.378 -32.506,85.34 c -3.112,8.308 -7.172,9.484 -13.174,9.484 -5.988,0 -10.06,-1.176 -13.158,-9.484 l -32.306,-85.34 18.568,0 27.106,71.984 26.866,-71.984 18.604,0" />
    <path
       style="fill:#203640"
       id="Fill-7"
       d="m 391.952,103.68 c -16.598,0 -30.036,-13.904 -30.036,-31.048 0,-17.14 13.438,-31.038 30.036,-31.038 16.584,0 30.034,13.898 30.034,31.038 0,17.144 -13.45,31.048 -30.034,31.048 z m 47.57,-30.666 c 0,-0.05 -0.024,-0.096 -0.024,-0.16 l 0,-0.074 c -0.126,-27.078 -21.374,-48.984 -47.606,-48.984 -26.29,0 -47.606,22.044 -47.606,49.218 0,27.166 21.316,49.192 47.606,49.192 11.64,0 22.296,-4.32 30.56,-11.48 l 0,11.394 17.046,0 0,-48.964 c 0,-0.048 0.024,-0.106 0.024,-0.142 z" />
    <path
       style="fill:#203640"
       id="Fill-8"
       d="m 582.724,40.69 c 10.44,0 15.272,3.102 21.076,8.914 l -51.088,28.478 c -0.234,-1.7 -0.402,-3.442 -0.402,-5.25 0,-18.974 12.798,-32.142 30.414,-32.142 z m 30.318,38.77 c -3.802,15.138 -11.646,25.48 -30.318,25.48 -10.482,0 -19.226,-4.682 -24.604,-12.432 l 69.482,-38.65 c -8.704,-17.996 -23.222,-29.41 -44.878,-29.41 -25.754,0 -48.216,19.738 -48.216,48.384 0,28.628 22.462,48.37 48.216,48.37 26.17,0 45.604,-17.878 48.174,-41.742 l -17.856,0 z" />
    <path
       style="fill:#203640"
       id="Fill-9"
       d="m 325.644,26.406 -26.888,71.98 -27.1,-71.98 -18.574,0 0.02,0.054 -0.02,0 -26.89,71.976 -27.086,-71.976 -18.578,0 32.314,85.328 c 3.104,8.32 7.166,9.476 13.172,9.476 5.99,0 10.046,-1.156 13.144,-9.476 l 23.212,-60.89 23.022,60.832 c 3.104,8.328 7.158,9.496 13.162,9.496 5.998,0 10.066,-1.168 13.168,-9.496 l 32.508,-85.324 -18.586,0" />
    <path
       style="fill:#008a94"
       id="Fill-12"
       d="m 111.99,126.09 c -6.62,0 -12.942,-1.418 -18.668,-3.966 C 76.738,114.768 65.168,97.91 65.168,78.292 65.168,67.75 68.51,57.988 74.19,50.074 68.472,47.542 62.162,46.132 55.514,46.132 c -20.688,0 -41.462,15.528 -45.464,35.734 -4.312,21.778 7.004,40.328 25.454,52.012 4.784,3.036 10.192,5.782 15.588,7.606 2.856,0.96 5.8,1.734 8.814,2.312 0.69,0.126 1.378,0.266 2.074,0.368 0.052,0.012 0.104,0.016 0.156,0.026 3.472,0.524 7.024,0.802 10.64,0.81 13.354,-0.06 24.756,-3.152 35.862,-9.438 0.452,-0.258 1.704,-0.988 1.882,-1.094 4.272,-2.614 8.236,-5.668 11.862,-9.082 -3.312,0.586 -8.77,0.704 -10.392,0.704" />
    <path
       style="fill:#37dcd6"
       id="Fill-10"
       d="M 87.628,2.488 C 87.548,2.476 87.47,2.456 87.394,2.44 86.402,2.242 85.4,2.066 84.394,1.906 83.984,1.84 83.566,1.784 83.152,1.726 82.372,1.616 81.59,1.514 80.804,1.43 80.096,1.354 79.378,1.296 78.666,1.246 78.104,1.198 77.548,1.148 76.988,1.116 75.666,1.046 74.34,1 73.002,1 33.236,1.004 1,33.238 1,73.004 c 0,3 0.206,5.952 0.562,8.854 0.56,-2.242 1.06,-4.108 1.588,-5.796 6.52,-22.422 27.204,-38.816 51.73,-38.816 9.652,0 18.698,2.55 26.532,6.992 9.468,4.952 16.316,12.582 20.742,21.03 4.208,7.676 6.606,16.49 6.606,25.856 0,9.008 -2.482,17.692 -6.388,25.152 3.048,0.75 7.164,1.172 11.546,1.172 3.622,0 10.276,-0.28 18.168,-3.25 0.066,-0.098 0.306,-0.484 0.374,-0.586 2.38,-3.57 4.428,-7.19 6.144,-10.932 0.162,-0.36 0.33,-0.72 0.486,-1.082 0.174,-0.392 0.336,-0.794 0.504,-1.192 0.316,-0.766 0.624,-1.54 0.916,-2.32 0.06,-0.16 0.12,-0.318 0.178,-0.478 0.74,-2.038 1.39,-4.12 1.948,-6.238 0.122,-0.476 0.238,-0.956 0.35,-1.438 0.1,-0.414 0.192,-0.824 0.286,-1.234 0.938,-4.332 1.506,-8.902 1.686,-13.808 0.01,-0.316 0.022,-0.632 0.024,-0.95 0.01,-0.366 0.016,-0.738 0.02,-1.112 C 144.92,38.152 120.328,9.238 87.628,2.488" />
    <g
       id="g8144" />
  </g>
</svg>
